<?xml version="1.0" standalone="no"?><!DOCTYPE svg PUBLIC "-//W3C//DTD SVG 1.1//EN" "http://www.w3.org/Graphics/SVG/1.1/DTD/svg11.dtd"><svg t="1752030940920" class="icon" viewBox="0 0 1024 1024" version="1.1" xmlns="http://www.w3.org/2000/svg" p-id="28041" xmlns:xlink="http://www.w3.org/1999/xlink" width="200" height="200"><path d="M512 512m-512 0a512 512 0 1 0 1024 0 512 512 0 1 0-1024 0Z" fill="#1890FF" p-id="28042"></path><path d="M320 832a63.168 63.168 0 0 1-45.184-17.92 57.472 57.472 0 0 1-18.816-43.008V466.304c0-16.768 6.272-31.104 18.816-43.072A63.36 63.36 0 0 1 320 405.312h32v-60.928c0-42.176 15.616-78.08 46.784-107.776A158.336 158.336 0 0 1 512 192a158.08 158.08 0 0 1 113.216 44.608c31.232 29.696 46.848 65.664 46.784 107.776v60.928h32c17.6 0 32.64 6.016 45.248 17.92 12.48 11.968 18.752 26.304 18.752 43.072v304.768a57.408 57.408 0 0 1-18.752 43.008A63.104 63.104 0 0 1 704 832H320z m192-152.384c17.6 0 32.64-5.952 45.248-17.92A57.152 57.152 0 0 0 576 618.688a57.408 57.408 0 0 0-18.752-43.072 63.424 63.424 0 0 0-45.248-17.92 62.656 62.656 0 0 0-45.184 17.92 57.92 57.92 0 0 0-18.816 43.072 57.088 57.088 0 0 0 18.816 43.008c12.608 12.032 27.648 17.984 45.184 17.92zM416 405.312h192v-60.928c0-25.408-9.344-46.976-28.032-64.768A94.976 94.976 0 0 0 512 252.928c-26.688 0-49.28 8.96-68.032 26.688A86.08 86.08 0 0 0 416 344.384v60.928z" fill="#FFFFFF" p-id="28043"></path></svg>