<?xml version="1.0" standalone="no"?><!DOCTYPE svg PUBLIC "-//W3C//DTD SVG 1.1//EN" "http://www.w3.org/Graphics/SVG/1.1/DTD/svg11.dtd"><svg t="1752031064897" class="icon" viewBox="0 0 1024 1024" version="1.1" xmlns="http://www.w3.org/2000/svg" p-id="29267" xmlns:xlink="http://www.w3.org/1999/xlink" width="200" height="200"><path d="M516.296351 940.594405c-15.302521 0-30.119995-5.343705-41.819454-15.039531L132.550387 642.391722 108.422873 618.971313C50.652122 562.820456 18.832416 488.087381 18.832416 408.517137s31.819706-154.304342 89.590457-210.434733c57.405431-55.827493 133.717468-86.574774 214.806298-86.574774 71.210855 0 138.737808 23.723308 193.06718 67.324338 54.248531-43.580564 121.775484-67.324338 193.067181-67.324338 81.08883 0 157.400866 30.747281 214.847229 86.574774 57.729819 56.171324 89.549525 130.883933 89.549526 210.434733s-31.819706 154.263409-89.549526 210.414268l-28.460192 27.225061-337.634764 279.43934a65.880453 65.880453 0 0 1-41.819454 14.998599z m-193.06718-746.175437c-59.389622 0-115.155716 22.407336-157.016103 63.114456-41.576931 40.403199-64.470337 94.002954-64.470338 150.983713s22.893406 110.602004 64.449871 150.983713l23.865548 23.176863 326.238202 269.88473L843.566046 581.706595l22.87294-22.225187c41.535999-40.382733 64.409962-94.002954 64.409962-150.964271s-22.87294-110.581538-64.449871-150.983713c-41.860387-40.686654-97.646947-63.114456-157.036569-63.114456-59.430554 0-115.176183 22.407336-157.036569 63.114456l-36.030611 34.896788-35.94977-34.836413c-41.940205-40.74703-97.726765-63.174831-157.116387-63.174831z" fill="#d81e06" p-id="29268"></path><path d="M516.296351 940.594405c-15.302521 0-30.119995-5.343705-41.819454-15.039531L132.550387 642.391722 108.422873 618.971313C50.652122 562.820456 18.832416 488.087381 18.832416 408.517137s31.819706-154.304342 89.590457-210.434733c57.405431-55.827493 133.717468-86.574774 214.806298-86.574774 71.210855 0 138.737808 23.723308 193.06718 67.324338 54.248531-43.580564 121.775484-67.324338 193.067181-67.324338 81.08883 0 157.400866 30.747281 214.847229 86.574774 57.729819 56.171324 89.549525 130.883933 89.549526 210.434733s-31.819706 154.263409-89.549526 210.414268l-28.460192 27.225061-337.634764 279.43934a65.880453 65.880453 0 0 1-41.819454 14.998599z" fill="#d81e06" p-id="29269"></path></svg>