<?xml version="1.0" standalone="no"?><!DOCTYPE svg PUBLIC "-//W3C//DTD SVG 1.1//EN" "http://www.w3.org/Graphics/SVG/1.1/DTD/svg11.dtd"><svg t="1752029571790" class="icon" viewBox="0 0 1024 1024" version="1.1" xmlns="http://www.w3.org/2000/svg" p-id="21269" xmlns:xlink="http://www.w3.org/1999/xlink" width="200" height="200"><path d="M537.941333 170.666667c77.952 0 149.76 30.336 203.008 85.845333 52.394667 54.016 81.834667 127.914667 82.986667 207.36v5.546667H756.053333l0.042667-4.906667c-1.536-127.36-92.885333-223.744-212.906667-226.56l-5.248-0.085333h-3.242666a210.645333 210.645333 0 0 0-155.562667 68.821333c-39.936 43.648-61.994667 98.304-60.928 160 0 0.597333 0 1.024 0.256 3.285333 0.213333 2.346667 0.298667 3.84 0.298667 5.546667 0 14.293333-2.176 21.930667-9.984 29.653333-3.925333 3.925333-22.101333 25.813333-54.613334 65.706667a13.738667 13.738667 0 0 0 6.656 21.930667l1.706667 0.426666 4.565333 0.768c12.458667 2.261333 24.96 4.309333 37.504 6.186667 5.632 0 9.984 3.370667 13.610667 8.277333 1.706667 2.432 2.730667 5.376 3.370667 8.874667 0.512 2.688 0.725333 5.248 0.768 7.168l0.042666 1.28 7.936 159.146667c44.202667-7.253333 120.234667-18.090667 154.538667-22.869334v69.546667A3458.816 3458.816 0 0 1 328.533333 853.333333c-33.365333 0-61.610667-26.453333-64-59.477333l-0.128-3.328-6.314666-131.498667-17.408-3.626666c-46.378667-10.154667-69.504-26.624-70.058667-63.36-0.256-13.056 6.144-26.965333 18.048-42.368 8.021333-10.282667 61.354667-80.426667 62.762667-81.792-1.28-162.986667 115.498667-291.413333 266.453333-297.045334L523.221333 170.666667h14.72z m151.68 348.714666l96.725334 283.050667h-56.448l-19.882667-67.072h-99.370667l-19.84 67.072H535.04l96.298667-283.050667h58.24z m163.712 0v283.050667h-50.261333v-283.050667H853.333333z m-193.365333 49.962667c-0.768 3.328-11.648 42.24-32.597333 116.565333h65.92a11780.48 11780.48 0 0 1-33.28-116.565333z" fill="#1296db" p-id="21270"></path></svg>