<?xml version="1.0" standalone="no"?><!DOCTYPE svg PUBLIC "-//W3C//DTD SVG 1.1//EN" "http://www.w3.org/Graphics/SVG/1.1/DTD/svg11.dtd"><svg t="1752029557026" class="icon" viewBox="0 0 1024 1024" version="1.1" xmlns="http://www.w3.org/2000/svg" p-id="19391" xmlns:xlink="http://www.w3.org/1999/xlink" width="200" height="200"><path d="M935.424 235.52L788.48 88.576c-15.872-15.872-37.376-24.576-59.392-24.576H372.224c-46.592 0-83.968 37.376-83.968 83.968v308.736c17.92-3.072 36.864-4.608 55.808-4.608V148.48c0-15.36 12.8-28.16 28.16-28.16h308.224V302.08c0 23.552 18.944 41.984 41.984 41.984h181.76v531.968c0 15.36-12.8 28.16-28.16 28.16l-503.808 0.512c-15.36 0-28.16-12.8-28.16-28.16v-266.24c-19.456 0-38.4 3.072-55.808 9.216v256.512c0 46.592 37.376 83.968 83.968 83.968h503.808c46.592 0 83.968-37.376 83.968-83.968V294.912c0-22.016-8.704-43.52-24.576-59.392z m-199.168 52.224V120.832c4.608 1.024 9.216 3.584 12.8 7.168L896 274.944c3.584 3.584 6.144 8.192 7.168 12.8h-166.912z" p-id="19392"></path><path d="M730.112 516.096L558.08 344.064c-8.192-8.192-21.504-8.192-29.696 0l-9.728 9.728c-8.192 8.192-8.192 21.504 0 29.696l119.296 119.296H344.064c-154.624 0-280.064 125.44-280.064 280.064 0 63.488 20.992 121.856 56.832 168.448 7.68 10.24 22.528 11.264 31.744 2.048l10.24-10.24c7.168-7.168 8.192-18.944 2.048-27.648-28.672-38.4-44.032-85.504-44.032-133.632 0-123.392 100.352-223.744 223.744-223.744h293.376l-119.296 119.296c-8.192 8.192-8.192 21.504 0 29.696l9.728 9.728c8.192 8.192 21.504 8.192 29.696 0l172.032-172.032c8.192-7.168 8.192-20.48 0-28.672z" p-id="19393"></path></svg>