<?xml version="1.0" standalone="no"?><!DOCTYPE svg PUBLIC "-//W3C//DTD SVG 1.1//EN" "http://www.w3.org/Graphics/SVG/1.1/DTD/svg11.dtd"><svg t="1752031056165" class="icon" viewBox="0 0 1024 1024" version="1.1" xmlns="http://www.w3.org/2000/svg" p-id="29019" xmlns:xlink="http://www.w3.org/1999/xlink" width="200" height="200"><path d="M524.26 242.67c-0.81 1.11-1.31 1.82 0 0zM610.74 173.58c-1.79 0.79-3.33 1.51 0 0zM878.32 486.11l-0.22 0.43 0.21-0.41zM708.42 160.54h-0.38l3 0.45-0.72-0.12z" fill="#8a8a8a" p-id="29020"></path><path d="M660 725.43c-33.28 25.43-66.74 50.64-99.93 76.19-20.24 15.57-40.55 31.16-59.71 48.06-2.42 2.14-4.82 4.32-7.21 6.5-15-13.35-30.84-25.74-46.76-38-15.15-11.7-30.41-23.27-45.6-34.93q-7.23-5.55-14.46-11.13l-0.86-0.66-3.28-2.54-8.19-6.38q-18.46-14.34-36.81-28.83c-38.37-30.3-76.79-60.66-112.6-94A708.12 708.12 0 0 1 172.21 586q-6.18-7.12-12.12-14.46c-1.83-2.25-3.59-4.55-5.4-6.8l-0.05-0.05c-1.08-1.43-2.15-2.85-3.22-4.29-7.41-10-14.43-20.27-20.92-30.87A351.18 351.18 0 0 1 112.82 497q-1.84-3.87-3.58-7.78c-0.41-0.92-0.81-1.85-1.21-2.78l-0.77-1.89q-3.3-8.24-6.11-16.67a274 274 0 0 1-9.31-35.85q-0.8-4.28-1.46-8.58c0-0.19-0.09-0.62-0.16-1.12-0.12-1-0.41-3.25-0.48-4q-1-9.51-1.37-19.07a276.88 276.88 0 0 1 0.92-33.59c0.24-2.67 0.51-5.34 0.83-8 0-0.24 0.08-0.66 0.14-1.13 0.09-0.65 0.18-1.31 0.23-1.64q1.19-7.76 2.82-15.45a261.17 261.17 0 0 1 8.15-29.59q2.43-7.12 5.26-14.1l0.74-1.71q1.62-3.63 3.34-7.2a251.14 251.14 0 0 1 14.2-25.57q3.73-5.89 7.77-11.57c1.28-1.78 2.58-3.54 3.9-5.3 0.57-0.72 1.14-1.45 1.72-2.16A268.81 268.81 0 0 1 178 203.16l1.69-1.27q2.81-2.05 5.65-4 5.69-3.94 11.59-7.57a240.6 240.6 0 0 1 24.2-13c1.72-0.8 3.45-1.56 5.18-2.33l2.66-1.07q6.34-2.48 12.82-4.6a226.65 226.65 0 0 1 26.21-6.91q3.09-0.61 6.19-1.14c1.62-0.27 6.41-0.86 6.08-0.84 2.93-0.32 5.85-0.62 8.8-0.82a212 212 0 0 1 27.15-0.13c4.27 0.25 8.5 0.75 12.75 1.17l1.87 0.29q3.64 0.59 7.27 1.31a206.49 206.49 0 0 1 26.43 7.1c3.31 1.13 6.56 2.37 9.81 3.66-1-0.4 3.87 1.63 5.35 2.33 2.2 1 4.37 2.07 6.53 3.17a220.59 220.59 0 0 1 25.53 15.21c2 1.35 3.88 2.72 5.78 4.13l0.92 0.64c0.59 0.47 1.19 0.93 1.78 1.41q6.19 4.95 12 10.29a267.08 267.08 0 0 1 23 23.86c1.73 2 3.44 4.09 5.11 6.17 0.72 0.9 1.42 1.83 2.15 2.72 3.61 4.79 7.06 9.69 10.4 14.67l0.18 0.27a21.09 21.09 0 0 0 8.26 8.18 26.14 26.14 0 0 0 6.54 2.43 20.92 20.92 0 0 0 17.22-2.43 25.48 25.48 0 0 0 4.57-3.81 28.44 28.44 0 0 0 3.87-4.64c3.83-5.72 8-11.19 12-16.77l-1.32 1.83c0.5-0.68 1.13-1.52 1.51-2q1.54-1.93 3.14-3.84 3.12-3.77 6.37-7.41A255.9 255.9 0 0 1 562.47 203c2.15-1.8 4.36-3.51 6.54-5.27l-2.18 1.75c0.61-0.48 1.35-1.06 1.83-1.41q2-1.47 4-2.89 7-5 14.45-9.41 7.21-4.32 14.76-8.08 3.71-1.84 7.49-3.54c1.09-0.49 2.2-0.95 3.29-1.45l-1.91 0.87c0.71-0.31 1.46-0.64 2-0.83a207.92 207.92 0 0 1 30.67-9.47q7.39-1.67 14.88-2.78l2.65-0.31q4.13-0.44 8.27-0.71a213.53 213.53 0 0 1 31.08 0.24c2.57 0.21 5.15 0.46 7.71 0.76l-1.53-0.23 1.91 0.28c1.46 0.19 3.62 0.54 2.65 0.4q7.29 1.19 14.51 2.83a228.08 228.08 0 0 1 30.25 9.25c2.28 0.86 4.53 1.8 6.8 2.71-8.6-3.43 0.73 0.37 2.88 1.36q7.11 3.3 14 7.06a244.73 244.73 0 0 1 27.09 17.19l2.68 2c2 1.58 3.94 3.15 5.88 4.78q6.14 5.16 11.92 10.7a249.35 249.35 0 0 1 21.88 23.84l0.48 0.53 0.24 0.33c0.41 0.55 0.83 1.09 1.23 1.64 1.64 2.19 3.24 4.4 4.81 6.65 3.14 4.51 6.14 9.14 9 13.85A259.46 259.46 0 0 1 880 295.22c0.45 1.12 0.91 2.24 1.35 3.37 1.1 2.83 2.15 5.67 3.16 8.54q2.87 8.19 5.17 16.55t4.1 17.13c0.56 2.73 1.07 5.48 1.54 8.23 0.25 1.47 0.49 2.95 0.72 4.43 0.06 0.35 0.11 0.71 0.16 1.06a299.15 299.15 0 0 1 2.1 37.49 263.06 263.06 0 0 1-1.72 26.91c-0.11 0.87-0.27 1.79-0.36 2.68-0.26 1.67-0.51 3.35-0.8 5q-1.17 6.89-2.7 13.72-2.85 12.76-6.89 25.21-2 6.19-4.29 12.3-1 2.67-2 5.32c-0.38 1-0.77 2-1.17 2.93l0.14-0.27-0.15 0.29v0.07c-1.09 2.69-1.06 2.1-0.18 0.34-3.92 7.42-7 15.39-10.84 22.85-5.68 10.92-3.17 26.07 8.44 32.2 10.82 5.72 26.13 3.22 32.2-8.44 18.47-35.47 30.68-72.88 35.54-112.57 3.71-30.33 1.91-61.26-4.06-91.19-9.83-49.28-33.82-95.45-67.76-132.41a267.43 267.43 0 0 0-118.6-74.59c-44.73-13.54-93.92-14.08-138.61-0.07-48.49 15.19-89 45.67-121.15 84.27-22.84-27.76-50.29-51.74-82.42-68.23-36.7-18.84-78.14-28.33-119.43-25.95a255.24 255.24 0 0 0-115 35.21 276.73 276.73 0 0 0-89.34 85.58c-24.71 37.34-38.9 80.25-44.12 124.53-6.2 52.69 3.67 105.12 24.77 153.49 20.9 47.9 53.54 90.32 89.31 128.05 34.74 36.65 73.45 69.27 112.81 100.8 42.25 33.84 85 67 128.05 99.87q10.95 8.36 21.87 16.75l0.81 0.62 4.74 3.68q4.28 3.35 8.52 6.71c10.09 8 20 16.26 29.54 25q6.74 6.17 13.18 12.61a23.89 23.89 0 0 0 33.28 0A580.83 580.83 0 0 1 554 865.76q6.87-5.6 13.84-11.07 3.82-3 7.68-6l3.68-2.86 1.59-1.23q19.66-15.12 39.42-30.13 31.77-24.16 63.52-48.38c5.09-3.89 9-7.63 10.82-14.06 1.55-5.64 0.85-13.14-2.37-18.14-6.18-9.65-21.75-16.46-32.18-8.46z m236.42-305.12c0.15-1.06 0.28-1.81 0 0z m-45-174.54c0 0.06-1.29-1.68-2-2.59a8.9 8.9 0 0 1 2.04 2.59z m-430.78-45.61c0.19 0.19-1.14-0.86-2.1-1.62a14.27 14.27 0 0 1 2.1 1.62z m1.25 658.09l0.36 0.28z" fill="#8a8a8a" p-id="29021"></path><path d="M982.77 688.28c-0.57-12.75-10.34-23.53-23.53-23.53H851.6V557.11c0-12.31-10.83-24.1-23.54-23.53s-23.53 10.34-23.53 23.53v107.64H696.89c-12.31 0-24.1 10.82-23.53 23.53s10.34 23.54 23.53 23.54h107.64v107.64c0 12.31 10.82 24.1 23.53 23.53s23.54-10.34 23.54-23.53V711.82h107.64c12.31 0 24.1-10.82 23.53-23.54z" fill="#8a8a8a" p-id="29022"></path></svg>