<?xml version="1.0" standalone="no"?><!DOCTYPE svg PUBLIC "-//W3C//DTD SVG 1.1//EN" "http://www.w3.org/Graphics/SVG/1.1/DTD/svg11.dtd"><svg t="1752026642442" class="icon" viewBox="0 0 1109 1024" version="1.1" xmlns="http://www.w3.org/2000/svg" p-id="8101" xmlns:xlink="http://www.w3.org/1999/xlink" width="216.6015625" height="200"><path d="M555.023369 60.035848C293.693916 60.035848 81.867398 271.862365 81.867398 533.234457S293.693916 1006.34779 555.023369 1006.34779c261.286816 0 473.155971-211.826518 473.155972-473.155971 0-261.286816-211.869156-473.155971-473.155972-473.155971z m390.437887 473.155971a389.286656 389.286656 0 0 1-114.35562 276.082267 389.286656 389.286656 0 0 1-276.082267 114.398258 389.286656 389.286656 0 0 1-276.082266-114.35562 389.286656 389.286656 0 0 1-114.398258-276.124905 389.286656 389.286656 0 0 1 114.35562-276.082267 389.286656 389.286656 0 0 1 276.124904-114.35562 389.286656 389.286656 0 0 1 276.082267 114.35562 389.286656 389.286656 0 0 1 114.35562 276.082267zM218.05377 13.688137a41.359042 41.359042 0 0 0-58.456955 0L13.688936 159.596016a41.359042 41.359042 0 1 0 58.456955 58.456956l145.907879-145.907879a41.359042 41.359042 0 0 0 0-58.456956z m878.304033 145.907879L950.449924 13.688137a41.359042 41.359042 0 1 0-58.456956 58.456956l145.865241 145.907879a41.18849 41.18849 0 0 0 58.499594 0 41.359042 41.359042 0 0 0 0-58.456956z" fill="#0097E0" opacity=".538" p-id="8102"></path><path d="M596.339774 491.875415V294.460605a41.359042 41.359042 0 1 0-82.675447 0v238.773852c0 22.811431 18.504974 41.359042 41.359042 41.359042h254.294153a41.359042 41.359042 0 1 0 0-82.718084h-212.977748z" fill="#0097E0" opacity=".538" p-id="8103"></path></svg>